<svg width="207" height="23" viewBox="0 0 207 23" fill="none" xmlns="http://www.w3.org/2000/svg">
<path fill-rule="evenodd" clip-rule="evenodd" d="M62.5438 3.02295C62.5438 4.69225 56.1303 6.0457 48.2191 6.0457C40.3075 6.0457 33.8943 4.69225 33.8943 3.02295C33.8943 1.35345 40.3075 0 48.2191 0C56.1303 0 62.5438 1.35345 62.5438 3.02295Z" fill="#4A90E2"/>
<path fill-rule="evenodd" clip-rule="evenodd" d="M72.1182 19.6807C72.1182 21.3669 61.4182 22.7339 48.2191 22.7339C35.0201 22.7339 24.3201 21.3669 24.3201 19.6807C24.3201 17.9945 35.0201 16.6275 48.2191 16.6275C61.4182 16.6275 72.1182 17.9945 72.1182 19.6807Z" fill="#4A90E2"/>
<path fill-rule="evenodd" clip-rule="evenodd" d="M96.4379 10.8891C96.4379 12.3149 74.8496 13.4707 48.219 13.4707C21.5885 13.4707 0 12.3149 0 10.8891C0 9.46352 21.5885 8.30771 48.219 8.30771C74.8496 8.30771 96.4379 9.46352 96.4379 10.8891Z" fill="#4A90E2"/>
<path fill-rule="evenodd" clip-rule="evenodd" d="M207 20.1667C204.58 19.8144 202.417 19.1869 200.561 18.2958C201.798 17.3429 202.842 16.2381 203.672 14.9937C205.626 12.0606 205.72 9.37646 205.723 9.26367L205.75 8.26317H199.803V3.84966H206.687V1.90163H199.803V0.349289H197.684V1.90163H190.63V3.84966H197.684V8.26317H191.465V10.2114H203.628C203.435 11.1162 202.994 12.5274 201.99 14.0028C201.14 15.252 200.017 16.3249 198.66 17.2209C197.337 16.3357 196.236 15.2743 195.39 14.0389C194.702 13.0342 194.267 12.0571 193.993 11.2459H191.952C192.245 12.2858 192.771 13.6351 193.714 15.039C194.536 16.2621 195.558 17.347 196.759 18.2848C194.906 19.1662 192.741 19.7963 190.316 20.1642V22.1344C193.437 21.6895 196.385 20.823 198.655 19.5569C200.927 20.8424 203.881 21.7099 207 22.1352V20.1667Z" fill="#4A90E2"/>
<path fill-rule="evenodd" clip-rule="evenodd" d="M187.446 1.90157H184.538V3.84981H187.446V11.1176L184.538 11.5683V13.5164L187.446 13.0659V19.7116C187.446 19.9801 187.228 20.1977 186.96 20.1977H184.366L185.567 22.1458H187.621C188.695 22.1458 189.566 21.2754 189.566 20.2013V12.7375V10.7893V3.84981V1.90157V0.349228H187.446V1.90157Z" fill="#4A90E2"/>
<path fill-rule="evenodd" clip-rule="evenodd" d="M144.449 0.349258H142.329L141.853 1.6264H131.848V5.14408H133.968V3.57465H152.011V5.14408H154.131V1.6264H143.972L144.449 0.349258Z" fill="#4A90E2"/>
<path fill-rule="evenodd" clip-rule="evenodd" d="M133.381 22.1438H135.5V11.4131H133.381V22.1438Z" fill="#4A90E2"/>
<path fill-rule="evenodd" clip-rule="evenodd" d="M133.901 6.13916L131.171 11.4131H133.38L136.11 6.13916H133.901Z" fill="#4A90E2"/>
<path fill-rule="evenodd" clip-rule="evenodd" d="M114.975 19.6334C114.975 19.9019 114.757 20.1196 114.489 20.1196H111.524L112.725 22.1562H114.995C116.203 22.1562 117.183 21.1766 117.183 19.9684V0.349258H114.975V19.6334Z" fill="#4A90E2"/>
<path fill-rule="evenodd" clip-rule="evenodd" d="M104.01 18.3798H106.229L111.115 3.94675H108.895L104.01 18.3798Z" fill="#4A90E2"/>
<path fill-rule="evenodd" clip-rule="evenodd" d="M121.042 3.94667L125.928 18.3797H128.147L123.262 3.94667H121.042Z" fill="#4A90E2"/>
<path fill-rule="evenodd" clip-rule="evenodd" d="M167.796 14.9036V12.9045L164.314 11.2175V7.73653H167.796V5.78829H164.314V2.87083L167.796 2.71196V0.763931L158.191 1.20174V3.14998L162.194 2.96735V5.78829H158.191V7.73653H162.194V22.1439H164.314V13.2168L167.796 14.9036Z" fill="#4A90E2"/>
<path fill-rule="evenodd" clip-rule="evenodd" d="M158.387 22.1438H160.423L161.157 9.42261H159.121L158.387 22.1438Z" fill="#4A90E2"/>
<path fill-rule="evenodd" clip-rule="evenodd" d="M179.221 0.374619H177.102V17.1662H166.776L167.976 19.1144H177.102V22.1438H179.221V19.1144H180.864V17.1662H179.221V0.374619Z" fill="#4A90E2"/>
<path fill-rule="evenodd" clip-rule="evenodd" d="M174.748 8.53738L172.111 1.11488H169.89L172.528 8.53738H174.748Z" fill="#4A90E2"/>
<path fill-rule="evenodd" clip-rule="evenodd" d="M172.945 15.9598H175.165L172.528 8.53728H170.307L172.945 15.9598Z" fill="#4A90E2"/>
<path fill-rule="evenodd" clip-rule="evenodd" d="M140.334 15.3061H150.719V12.4632H140.334V15.3061ZM140.334 20.1955H150.719V17.2541H140.334V20.1955ZM137.229 8.08745H144.781L144.225 10.515H140.334H138.214V22.1438H152.838V10.515H146.344L146.901 8.08745H153.824V6.13921H137.229V8.08745Z" fill="#4A90E2"/>
</svg>
